<?xml version="1.0" encoding="UTF-8"?>
<svg id="Layer_1" xmlns="http://www.w3.org/2000/svg" version="1.1" viewBox="0 0 737.9 127.9">
  <!-- Generator: Adobe Illustrator 29.0.0, SVG Export Plug-In . SVG Version: 2.1.0 Build 186)  -->
  <defs>
    <style>
      .st0 {
        fill: none;
      }

      .st1 {
        fill: #3a4352;
      }

      .st2 {
        fill: #5c677d;
        stroke: #5c677d;
        stroke-miterlimit: 10;
      }
    </style>
  </defs>
  <g>
    <rect class="st0" y="0" width="573" height="127.9"/>
    <path class="st1" d="M32,98.8c-6.5,0-12.1-1.1-16.8-3.4-4.7-2.2-8.9-5.7-12.7-10.2l10.5-10.5c2.5,3.2,5.3,5.6,8.4,7.4,3.1,1.7,7,2.6,11.6,2.6s7.4-.8,9.8-2.4c2.4-1.6,3.6-3.9,3.6-6.7s-.7-4.5-2.1-6c-1.4-1.6-3.2-2.9-5.5-3.9-2.3-1-4.8-2-7.6-2.9-2.8-.9-5.5-1.9-8.2-3.1-2.7-1.2-5.2-2.6-7.6-4.4-2.3-1.8-4.2-4-5.5-6.7-1.4-2.7-2-6.2-2-10.5s1.2-9.2,3.6-12.7c2.4-3.5,5.7-6.2,9.9-8,4.2-1.9,8.9-2.8,14.2-2.8s10.6,1,15.2,3.1c4.5,2.1,8.2,4.8,11,8.1l-10.5,10.5c-2.4-2.6-4.9-4.6-7.4-5.8-2.5-1.2-5.4-1.9-8.6-1.9s-6.5.7-8.6,2.2c-2.1,1.4-3.1,3.4-3.1,6s.7,4.1,2.1,5.4c1.4,1.4,3.2,2.6,5.5,3.6,2.3,1,4.8,2,7.6,3s5.5,2,8.3,3.2c2.7,1.2,5.2,2.7,7.5,4.5,2.3,1.8,4.1,4.2,5.5,7.1,1.4,2.9,2.1,6.5,2.1,10.8,0,7.6-2.7,13.6-8,18-5.4,4.4-12.7,6.6-22.1,6.6Z"/>
    <path class="st1" d="M72.9,97.5v-56.2h15.2v56.2h-15.2ZM109.5,97.5v-33.2c0-3.3-1-5.8-3-7.6-2-1.8-4.5-2.7-7.6-2.7s-3.8.4-5.4,1.2c-1.6.8-2.9,2-3.8,3.5-1,1.6-1.5,3.5-1.5,5.7l-5.9-3c0-4.3.9-8.1,2.9-11.3,1.9-3.2,4.5-5.6,7.7-7.4,3.3-1.7,6.9-2.6,11.1-2.6s7.4.9,10.6,2.6c3.2,1.7,5.7,4.2,7.6,7.3,1.9,3.1,2.8,6.9,2.8,11.2v36.2h-15.4ZM146.1,97.5v-33.2c0-3.3-1-5.8-3-7.6-2-1.8-4.5-2.7-7.4-2.7s-3.9.4-5.5,1.2c-1.6.8-2.9,2-3.8,3.5-1,1.6-1.5,3.5-1.5,5.7l-8.7-2.2c.2-4.6,1.4-8.5,3.5-11.8,2.1-3.3,4.9-5.8,8.3-7.6,3.4-1.8,7.2-2.7,11.4-2.7s7.9.9,11.3,2.6c3.3,1.7,6,4.2,8,7.5,2,3.3,3,7.2,3,11.8v35.5h-15.5Z"/>
    <path class="st1" d="M197.2,98.7c-5.1,0-9.7-1.3-13.8-3.8-4.1-2.6-7.3-6-9.6-10.5-2.3-4.4-3.5-9.4-3.5-14.9s1.2-10.6,3.5-15,5.5-7.9,9.6-10.5c4.1-2.6,8.7-3.8,13.9-3.8s7.5.8,10.7,2.4c3.2,1.6,5.7,3.9,7.7,6.7,1.9,2.9,3,6.2,3.1,9.9v20.4c-.2,3.6-1.2,6.9-3.1,9.8-1.9,2.9-4.5,5.2-7.7,6.8-3.2,1.6-6.8,2.4-10.9,2.4ZM200.1,84.6c4.3,0,7.7-1.4,10.4-4.3,2.6-2.9,4-6.5,4-10.8s-.6-5.6-1.9-7.9c-1.2-2.3-2.9-4.1-5-5.4-2.1-1.3-4.6-1.9-7.4-1.9s-5.3.7-7.4,2c-2.1,1.3-3.8,3.1-5,5.4-1.2,2.3-1.8,4.8-1.8,7.8s.6,5.7,1.8,7.9c1.2,2.3,2.9,4,5.1,5.4,2.2,1.3,4.6,2,7.3,2ZM213.5,97.5v-15.1l2.6-13.7-2.6-13.6v-13.7h15.4v56.2h-15.4Z"/>
    <path class="st1" d="M242.1,97.5v-56.2h15.2v56.2h-15.2ZM257.4,66.5l-5.9-4.1c.7-6.9,2.7-12.4,6-16.3,3.3-4,8.1-6,14.4-6s5.3.4,7.4,1.3c2.1.9,4.1,2.3,5.9,4.4l-9.5,11.1c-.9-1-1.9-1.7-3.1-2.2-1.2-.4-2.6-.6-4.1-.6-3.3,0-5.9,1-8,3-2.1,2-3.1,5.2-3.1,9.4Z"/>
    <path class="st1" d="M286.1,54.7v-13.4h41.5v13.4h-41.5ZM299.2,97.5V17.9h15.2v79.6h-15.2Z"/>
    <path class="st1" d="M337.9,97.5V15.7h15.8v81.8h-15.8ZM349.5,29.7v-14h43.2v14h-43.2ZM349.5,64v-14h41.2v14h-41.2Z"/>
    <path class="st1" d="M425,98.7c-5.1,0-9.7-1.3-13.8-3.8s-7.3-6-9.6-10.5c-2.3-4.4-3.5-9.4-3.5-14.9s1.2-10.6,3.5-15,5.5-7.9,9.6-10.5,8.7-3.8,13.9-3.8,7.5.8,10.7,2.4c3.2,1.6,5.7,3.9,7.7,6.7,1.9,2.9,3,6.2,3.1,9.9v20.4c-.2,3.6-1.2,6.9-3.1,9.8-1.9,2.9-4.5,5.2-7.7,6.8-3.2,1.6-6.8,2.4-10.9,2.4ZM427.9,84.6c4.3,0,7.7-1.4,10.4-4.3,2.6-2.9,4-6.5,4-10.8s-.6-5.6-1.9-7.9c-1.2-2.3-2.9-4.1-5-5.4-2.1-1.3-4.6-1.9-7.4-1.9s-5.3.7-7.4,2c-2.1,1.3-3.8,3.1-5,5.4-1.2,2.3-1.8,4.8-1.8,7.8s.6,5.7,1.8,7.9c1.2,2.3,2.9,4,5.1,5.4,2.2,1.3,4.6,2,7.3,2ZM441.3,97.5v-15.1l2.6-13.7-2.6-13.6v-13.7h15.4v56.2h-15.4Z"/>
    <path class="st1" d="M469.9,97.5v-56.2h15.2v56.2h-15.2ZM485.2,66.5l-5.9-4.1c.7-6.9,2.7-12.4,6-16.3,3.3-4,8.1-6,14.4-6s5.3.4,7.4,1.3c2.1.9,4.1,2.3,5.9,4.4l-9.5,11.1c-.9-1-1.9-1.7-3.1-2.2-1.2-.4-2.6-.6-4.1-.6-3.3,0-5.9,1-8,3-2.1,2-3.1,5.2-3.1,9.4Z"/>
    <path class="st1" d="M543.7,98.8c-5.9,0-11.2-1.3-15.8-3.8-4.6-2.6-8.2-6-10.9-10.5-2.6-4.4-4-9.5-4-15.1s1.3-10.6,3.9-15c2.6-4.4,6.1-7.9,10.6-10.5,4.5-2.6,9.5-3.8,15.1-3.8s10,1.2,14.2,3.6c4.2,2.4,7.4,5.7,9.8,10,2.3,4.3,3.5,9.1,3.5,14.5s0,2-.1,3.1c0,1-.3,2.2-.6,3.4h-47.4c0,.1,0-11.3,0-11.3h40.3c0-.1-6.3,4.7-6.3,4.7,0-3.3-.7-6.1-1.7-8.4-1.1-2.2-2.6-4-4.5-5.1-1.9-1.2-4.3-1.7-7.2-1.7s-5.7.7-7.9,2c-2.3,1.3-4,3.2-5.2,5.6-1.2,2.4-1.8,5.3-1.8,8.7s.6,6.4,1.9,8.9c1.3,2.5,3.1,4.4,5.5,5.8,2.4,1.3,5.2,2,8.4,2s5.5-.5,7.8-1.4c2.3-.9,4.3-2.4,6.1-4.4l9.1,9.1c-2.9,3.3-6.2,5.7-10.1,7.3-3.9,1.6-8.1,2.4-12.7,2.4Z"/>
  </g>
  <g>
    <rect class="st1" x="584.7" y="43" width="153.2" height="55.1" rx="3.9" ry="3.9"/>
    <circle class="st2" cx="620.1" cy="88.8" r="18.5"/>
    <circle class="st2" cx="701.6" cy="88.4" r="18.5"/>
    <rect class="st2" x="711.9" y="50.6" width="21.4" height="9.2" rx=".5" ry=".5"/>
    <rect class="st2" x="681.2" y="50.6" width="9.2" height="9.2" rx=".5" ry=".5"/>
    <rect class="st2" x="653.7" y="50.6" width="9.2" height="9.2" rx=".5" ry=".5"/>
    <rect class="st2" x="598.5" y="50.6" width="9.2" height="9.2" rx=".5" ry=".5"/>
    <rect class="st2" x="626.1" y="50.6" width="9.2" height="9.2" rx=".5" ry=".5"/>
  </g>
</svg>